<?xml version="1.0" encoding="iso-8859-1"?>
<!-- Uploaded to: SVG Repo, www.svgrepo.com, Generator: SVG Repo Mixer Tools -->
<svg version="1.1" id="Layer_1" xmlns="http://www.w3.org/2000/svg" xmlns:xlink="http://www.w3.org/1999/xlink" 
	 viewBox="0 0 512 512" xml:space="preserve">
<rect x="239.484" y="8.258" style="fill:#58575D;" width="33.032" height="44.043"/>
<path style="fill:#797781;" d="M178.925,415.656h-22.021c-18.168,0-33.032-14.865-33.032-33.032V74.323
	c0-18.168,14.865-33.032,33.032-33.032h198.194c18.168,0,33.032,14.865,33.032,33.032v308.301c0,18.168-14.865,33.032-33.032,33.032
	h-22.021"/>
<path style="fill:#58575D;" d="M355.097,41.29h-36.335c18.168,0,33.032,14.865,33.032,33.032v308.301
	c0,18.168-14.865,33.032-33.032,33.032h14.314h22.021c18.168,0,33.032-14.865,33.032-33.032V74.323
	C388.129,56.155,373.265,41.29,355.097,41.29z"/>
<path style="fill:#EDEDED;" d="M200.946,203.699h-33.032c-4.561,0-8.258-3.696-8.258-8.258v-33.032c0-4.562,3.697-8.258,8.258-8.258
	h33.032c4.561,0,8.258,3.696,8.258,8.258v33.032C209.204,200.003,205.507,203.699,200.946,203.699z"/>
<path style="fill:#D8D8DA;" d="M200.946,154.151h-22.022c4.561,0,8.258,3.696,8.258,8.258v33.032c0,4.562-3.697,8.258-8.258,8.258
	h22.022c4.561,0,8.258-3.696,8.258-8.258v-33.032C209.204,157.847,205.507,154.151,200.946,154.151z"/>
<path style="fill:#EDEDED;" d="M272.516,203.699h-33.032c-4.561,0-8.258-3.696-8.258-8.258v-33.032c0-4.562,3.697-8.258,8.258-8.258
	h33.032c4.561,0,8.258,3.696,8.258,8.258v33.032C280.774,200.003,277.077,203.699,272.516,203.699z"/>
<path style="fill:#D8D8DA;" d="M272.516,154.151h-22.022c4.561,0,8.258,3.696,8.258,8.258v33.032c0,4.562-3.697,8.258-8.258,8.258
	h22.022c4.561,0,8.258-3.696,8.258-8.258v-33.032C280.774,157.847,277.077,154.151,272.516,154.151z"/>
<path style="fill:#EDEDED;" d="M344.086,203.699h-33.032c-4.561,0-8.258-3.696-8.258-8.258v-33.032c0-4.562,3.697-8.258,8.258-8.258
	h33.032c4.561,0,8.258,3.696,8.258,8.258v33.032C352.344,200.003,348.647,203.699,344.086,203.699z"/>
<path style="fill:#D8D8DA;" d="M344.086,154.151h-22.022c4.561,0,8.258,3.696,8.258,8.258v33.032c0,4.562-3.697,8.258-8.258,8.258
	h22.022c4.561,0,8.258-3.696,8.258-8.258v-33.032C352.344,157.847,348.647,154.151,344.086,154.151z"/>
<path style="fill:#EDEDED;" d="M200.946,269.763h-33.032c-4.561,0-8.258-3.696-8.258-8.258v-33.032c0-4.562,3.697-8.258,8.258-8.258
	h33.032c4.561,0,8.258,3.696,8.258,8.258v33.032C209.204,266.067,205.507,269.763,200.946,269.763z"/>
<path style="fill:#D8D8DA;" d="M200.946,220.215h-22.022c4.561,0,8.258,3.696,8.258,8.258v33.032c0,4.562-3.697,8.258-8.258,8.258
	h22.022c4.561,0,8.258-3.696,8.258-8.258v-33.032C209.204,223.911,205.507,220.215,200.946,220.215z"/>
<path style="fill:#EDEDED;" d="M272.516,269.763h-33.032c-4.561,0-8.258-3.696-8.258-8.258v-33.032c0-4.562,3.697-8.258,8.258-8.258
	h33.032c4.561,0,8.258,3.696,8.258,8.258v33.032C280.774,266.067,277.077,269.763,272.516,269.763z"/>
<path style="fill:#D8D8DA;" d="M272.516,220.215h-22.022c4.561,0,8.258,3.696,8.258,8.258v33.032c0,4.562-3.697,8.258-8.258,8.258
	h22.022c4.561,0,8.258-3.696,8.258-8.258v-33.032C280.774,223.911,277.077,220.215,272.516,220.215z"/>
<path style="fill:#EDEDED;" d="M344.086,269.763h-33.032c-4.561,0-8.258-3.696-8.258-8.258v-33.032c0-4.562,3.697-8.258,8.258-8.258
	h33.032c4.561,0,8.258,3.696,8.258,8.258v33.032C352.344,266.067,348.647,269.763,344.086,269.763z"/>
<path style="fill:#D8D8DA;" d="M344.086,220.215h-22.022c4.561,0,8.258,3.696,8.258,8.258v33.032c0,4.562-3.697,8.258-8.258,8.258
	h22.022c4.561,0,8.258-3.696,8.258-8.258v-33.032C352.344,223.911,348.647,220.215,344.086,220.215z"/>
<path style="fill:#95D5A7;" d="M200.946,335.828h-33.032c-4.561,0-8.258-3.696-8.258-8.258v-33.032c0-4.562,3.697-8.258,8.258-8.258
	h33.032c4.561,0,8.258,3.696,8.258,8.258v33.032C209.204,332.132,205.507,335.828,200.946,335.828z"/>
<path style="fill:#80CB93;" d="M200.946,286.28h-22.022c4.561,0,8.258,3.696,8.258,8.258v33.032c0,4.562-3.697,8.258-8.258,8.258
	h22.022c4.561,0,8.258-3.696,8.258-8.258v-33.032C209.204,289.976,205.507,286.28,200.946,286.28z"/>
<path style="fill:#E07188;" d="M272.516,335.828h-33.032c-4.561,0-8.258-3.696-8.258-8.258v-33.032c0-4.562,3.697-8.258,8.258-8.258
	h33.032c4.561,0,8.258,3.696,8.258,8.258v33.032C280.774,332.132,277.077,335.828,272.516,335.828z"/>
<path style="fill:#DC4161;" d="M272.516,286.28h-22.022c4.561,0,8.258,3.696,8.258,8.258v33.032c0,4.562-3.697,8.258-8.258,8.258
	h22.022c4.561,0,8.258-3.696,8.258-8.258v-33.032C280.774,289.976,277.077,286.28,272.516,286.28z"/>
<path style="fill:#F8E99B;" d="M344.086,335.828h-33.032c-4.561,0-8.258-3.696-8.258-8.258v-33.032c0-4.562,3.697-8.258,8.258-8.258
	h33.032c4.561,0,8.258,3.696,8.258,8.258v33.032C352.344,332.132,348.647,335.828,344.086,335.828z"/>
<path style="fill:#F6E27D;" d="M344.086,286.28h-22.022c4.561,0,8.258,3.696,8.258,8.258v33.032c0,4.562-3.697,8.258-8.258,8.258
	h22.022c4.561,0,8.258-3.696,8.258-8.258v-33.032C352.344,289.976,348.647,286.28,344.086,286.28z"/>
<path style="fill:#EDEDED;" d="M316.559,503.742H195.441c-9.121,0-16.516-7.395-16.516-16.516V371.613h154.151v115.613
	C333.075,496.347,325.68,503.742,316.559,503.742z"/>
<rect x="167.914" y="85.333" style="fill:#95D5A7;" width="176.172" height="44.043"/>
<polygon style="fill:#80CB93;" points="167.914,85.333 167.914,107.355 322.065,107.355 322.065,129.376 344.086,129.376 
	344.086,85.333 "/>
<path style="fill:#D8D8DA;" d="M178.925,371.613v22.022h121.118v93.591c0,9.121-7.395,16.516-16.516,16.516h33.032
	c9.121,0,16.516-7.395,16.516-16.516V371.613H178.925z"/>
<rect x="244.989" y="360.602" style="fill:#797781;" width="44.043" height="143.14"/>
<rect x="244.989" y="371.613" style="fill:#58575D;" width="44.043" height="22.022"/>
<g>
	<path style="fill:#2E2D31;" d="M355.097,33.032h-74.323V8.258c0-4.562-3.696-8.258-8.258-8.258c-4.562,0-8.258,3.696-8.258,8.258
		v24.774h-16.516V8.258c0-4.562-3.697-8.258-8.258-8.258s-8.258,3.696-8.258,8.258v24.774h-74.323
		c-22.768,0-41.29,18.522-41.29,41.29c0,4.562,3.697,8.258,8.258,8.258s8.258-3.696,8.258-8.258
		c0-13.66,11.113-24.774,24.774-24.774h198.194c13.66,0,24.774,11.114,24.774,24.774v308.301c0,10.711-6.864,20.171-17.082,23.543
		c-4.332,1.429-6.684,6.099-5.254,10.429c1.145,3.473,4.373,5.673,7.841,5.673c0.857,0,1.73-0.134,2.588-0.418
		c17.002-5.61,28.424-21.373,28.424-39.227V74.323C396.387,51.555,377.865,33.032,355.097,33.032z"/>
	<path style="fill:#2E2D31;" d="M333.075,363.355H178.925c-4.561,0-8.258,3.696-8.258,8.258v35.785h-13.763
		c-13.661,0-24.774-11.114-24.774-24.774V107.355c0-4.562-3.697-8.258-8.258-8.258s-8.258,3.696-8.258,8.258v275.269
		c0,22.768,18.522,41.29,41.29,41.29h13.763v63.312c0,13.66,11.113,24.774,24.774,24.774h121.118
		c13.66,0,24.774-11.114,24.774-24.774V371.613C341.333,367.051,337.637,363.355,333.075,363.355z M324.817,487.226
		c0,4.554-3.704,8.258-8.258,8.258H195.441c-4.554,0-8.258-3.704-8.258-8.258V379.871h137.634V487.226z"/>
</g>
</svg>